<?xml version="1.0" encoding="UTF-8" standalone="no"?>
<!DOCTYPE svg PUBLIC "-//W3C//DTD SVG 1.1//EN" "http://www.w3.org/Graphics/SVG/1.1/DTD/svg11.dtd">
<svg width="100%" height="100%" viewBox="0 0 512 512" version="1.1" xmlns="http://www.w3.org/2000/svg" xmlns:xlink="http://www.w3.org/1999/xlink" xml:space="preserve" xmlns:serif="http://www.serif.com/" style="fill-rule:evenodd;clip-rule:evenodd;stroke-linejoin:round;stroke-miterlimit:2;">
    <g transform="matrix(0.571586,0,0,0.557267,75.0269,-18.5537)">
        <path d="M690.1,88.8L711.267,110.233C740.467,139.8 740.733,187.5 711.8,216.767L584.8,88.233C598.655,74.282 617.525,66.428 637.188,66.428C657.109,66.428 676.206,74.49 690.1,88.767L690.1,88.8Z" style="fill:rgb(23,40,94);fill-rule:nonzero;"/>
    </g>
    <g transform="matrix(0.571497,0,0,0.57985,31.3893,15.4435)">
        <path d="M402.501,529.802L347.6,585.367L222.133,621.5C206.29,625.934 189.601,616.567 185.133,600.733C183.526,595.23 183.503,589.383 185.067,583.867L221.567,455.867L274.744,402.045L402.501,529.802ZM257.333,548.533L316.033,531.6L274.633,487.833L257.3,548.5L257.333,548.533Z" style="fill:rgb(23,40,94);fill-rule:nonzero;"/>
    </g>
    <g transform="matrix(0.692444,-0.692444,0.866193,0.866193,-46.3484,161.658)">
        <rect x="111.477" y="185.783" width="249.417" height="84.846" style="fill:rgb(23,40,94);"/>
    </g>
    <g transform="matrix(0.753218,0,0,0.7308,-32.4048,-42.2377)">
        <path d="M306.133,127.233C322.667,127.233 336.067,140.8 336.067,157.533L336.067,157.734C336.067,174.183 322.583,187.743 306.133,187.833L186.4,187.833C153.333,187.833 126.533,214.967 126.533,248.4L126.533,611.933C126.533,645.4 153.333,672.533 186.4,672.533L545.6,672.533C578.667,672.533 605.5,645.4 605.5,611.933L605.5,490.767C605.5,474.033 618.9,460.467 635.433,460.467C651.967,460.467 665.367,474.033 665.367,490.8L665.367,611.933C665.367,678.867 611.733,733.133 545.6,733.133L186.4,733.133C120.267,733.133 66.667,678.867 66.667,611.933L66.667,248.4C66.667,181.5 120.267,127.233 186.4,127.233L306.133,127.233Z" style="fill:rgb(23,40,94);fill-rule:nonzero;"/>
    </g>
    <g transform="matrix(0.15586,-0.15586,0.866193,0.866193,188.635,-72.9924)">
        <rect x="111.477" y="185.783" width="249.417" height="84.846" style="fill:rgb(54,94,171);"/>
    </g>
</svg>
