<?xml version="1.0" encoding="UTF-8" standalone="no"?>
<!DOCTYPE svg PUBLIC "-//W3C//DTD SVG 1.1//EN" "http://www.w3.org/Graphics/SVG/1.1/DTD/svg11.dtd">
<svg width="100%" height="100%" viewBox="0 0 512 512" version="1.1" xmlns="http://www.w3.org/2000/svg" xmlns:xlink="http://www.w3.org/1999/xlink" xml:space="preserve" xmlns:serif="http://www.serif.com/" style="fill-rule:evenodd;clip-rule:evenodd;stroke-linejoin:round;stroke-miterlimit:2;">
    <g transform="matrix(-1,0,0,1,512.856,0)">
        <path d="M241,3C245.997,8.669 250.997,14.336 256,20L257,22L264,31L267,34C270.99,39.341 274.99,44.674 279,50L281,52L285,58L287,60C292,68 295,74 295,83C293,95 284,103 276,111L268,120L259,130C255.952,133.29 252.952,136.623 250,140L248,142C243,148 237,150 229,151C219,150 213,145 206,138L204,136L202,137C189,141 189,141 182,141L182,144C184.345,186.333 186.679,228.666 189,271L192,269C231.496,245.769 281.044,247.329 319,273L321,274L327,270C346,247 373,230 403,227C418,226 433,227 448,231L450,232C468,236 485,245 499,257C501,260 500,263 500,266C498,269 497,271 493,272C487,272 483,269 478,265C469,259 458,254 448,251L446,250C420.719,241.526 392.963,244.448 370,258L367,260C358.506,265.259 350.768,271.652 344,279L337,288L340,292C349,303 359,317 358,331C357,336 357,336 354,338L344,338C341,335 340,333 339,329C337,318 330,309 323,301L321,298L311,290L309,289C287,274 259,268 233,273C219,276 207,282 195,290L189,293L189,295C187,307 181,321 172,329C168,330 165,331 161,330L156,325C155,321 155,319 158,315L162,311L167,303L168,300C170,294 171,288 171,281L171,279L170,242C168.321,215.334 166.654,188.667 165,162L165,159C164,152 163,147 158,141L154,133C155,129 156,127 159,125L166,124C171.723,123.967 177.425,123.296 183,122C191,121 191,121 196,116L203,113C208,114 211,117 215,121L221,126L223,129L229,132C234,131 236,128 239,125L241,123C243.708,120.037 246.375,117.037 249,114L250,112L257,105L275,84L276,79C272.32,73.676 268.654,68.342 265,63L263,60L255,50L235,24L214,33L203,38L152,61L149,62C139.316,66.294 129.649,70.627 120,75L113,78C109,80 108,81 106,85L99,106C97.318,111.662 95.651,117.329 94,123C75,191 57,260 40,328L39,332L36,341L36,343L32,367L32,384L34,385L43,389L46,390C55,394 63,398 71,405L96,423L98,424C125.498,445.217 156.693,461.154 190,471C209,476 228,477 248,476L251,476C285.044,476.392 318.995,472.358 352,464C358,462 363,464 369,467C406,485 449,492 490,488C493,488 495,489 498,491C501,495 501,497 500,501C498,504 496,506 492,507L476,507C437,508 396,503 361,484C353,481 342,485 334,487L299,492L297,493L249,495L246,495C178.313,493.023 113.463,467.154 63,422L56,417L54,415C46.306,409.786 37.881,405.742 29,403L27,402C21,400 18,397 15,392C9,375 14,350 19,333L22,320L66,154C73.027,130.008 80.027,106.008 87,82L88,78C91,69 98,65 106,61L109,60C139.352,45.321 170.026,31.318 201,18C209.356,14.047 217.689,10.047 226,6C235,2 235,2 241,3ZM126,375L135,384C140,392 146,399 154,405L157,407L182,423L185,424C215,439 250,441 283,434C288,433 292,433 297,436C300,440 300,442 299,446C297,449 296,451 292,452C287.022,453.109 282.021,454.109 277,455C256,458 233,458 212,453L210,452C172,444 138,422 116,391C114,387 113,385 114,381C117,376 120,374 126,375ZM445,384C448,386 450,388 451,392C458,402 476,405 488,407C493,408 497,409 500,414C501,418 501,420 498,424C493,427 488,426 483,426L475,424L473,423C458,419 443,414 434,401C432,398 432,394 432,390C435,384 439,383 445,384Z" style="fill:rgb(23,40,94);stroke:rgb(23,40,94);stroke-width:1px;"/>
    </g>
    <g transform="matrix(-8.68421e-17,1.41824,1.38202,8.46245e-17,-38.469,-266.865)">
        <path d="M285.148,115.434L285.148,138.129L232.678,93.629L285.148,49.129L285.148,71.824L312.178,71.824L312.178,115.434L285.148,115.434Z" style="fill:none;stroke:rgb(71,148,219);stroke-width:14.28px;stroke-linecap:round;stroke-miterlimit:1.5;"/>
    </g>
</svg>
