<?xml version="1.0" encoding="UTF-8" standalone="no"?>
<!DOCTYPE svg PUBLIC "-//W3C//DTD SVG 1.1//EN" "http://www.w3.org/Graphics/SVG/1.1/DTD/svg11.dtd">
<svg width="100%" height="100%" viewBox="0 0 512 512" version="1.1" xmlns="http://www.w3.org/2000/svg" xmlns:xlink="http://www.w3.org/1999/xlink" xml:space="preserve" xmlns:serif="http://www.serif.com/" style="fill-rule:evenodd;clip-rule:evenodd;stroke-linejoin:round;stroke-miterlimit:2;">
    <g transform="matrix(1.68371,0,0,1,-120.227,-5.20785)">
        <path d="M175.109,389.323L144.109,310.848L116.794,389.323L74.738,389.323L123.514,259.018L73.654,133.093L116.794,133.093L147.361,210.473L174.242,133.093L216.298,133.093L167.955,262.303L218.249,389.323L175.109,389.323Z" style="fill:rgb(23,40,94);fill-rule:nonzero;"/>
        <path d="M330.109,389.323L299.109,310.848L271.794,389.323L229.738,389.323L278.514,259.018L228.654,133.093L271.794,133.093L302.361,210.473L329.242,133.093L371.298,133.093L322.955,262.303L373.249,389.323L330.109,389.323Z" style="fill:rgb(23,40,94);fill-rule:nonzero;"/>
    </g>
</svg>
